<svg xmlns="http://www.w3.org/2000/svg" xmlns:xlink="http://www.w3.org/1999/xlink" viewBox="0 0 1248.95 1241.45"><defs><style>.cls-1{fill:#462aa5;}.cls-2{opacity:0.1;}.cls-3{fill:url(#linear-gradient);}.cls-4{fill:#2aa54b;}.cls-5{fill:#e6e6e6;}.cls-12,.cls-6,.cls-7{fill:#fff;}.cls-12,.cls-7{font-size:31px;font-family:Archivo-ExtraBold, Archivo;font-weight:800;}.cls-13,.cls-7{letter-spacing:0.02em;}.cls-8{letter-spacing:0.01em;}.cls-9{letter-spacing:0.03em;}.cls-10{letter-spacing:0.02em;}.cls-11,.cls-12{letter-spacing:-0.01em;}.cls-14{letter-spacing:0.02em;}</style><linearGradient id="linear-gradient" y1="624.45" x2="1234" y2="624.45" gradientUnits="userSpaceOnUse"><stop offset="0" stop-color="aqua"/><stop offset="1" stop-color="#7ac943"/></linearGradient></defs><g id="Layer_2" data-name="Layer 2"><g id="Layer_2-2" data-name="Layer 2"><rect class="cls-1" x="126" y="296.45" width="414" height="71" rx="12" transform="translate(332.26 -138.24) rotate(45)"/><rect class="cls-1" x="710" y="880.45" width="414" height="71" rx="12" transform="translate(916.26 -380.14) rotate(45)"/><rect class="cls-1" x="9.05" y="584.45" width="414" height="71" rx="12"/><rect class="cls-1" x="834.95" y="584.45" width="414" height="71" rx="12"/><rect class="cls-1" x="410" y="171.5" width="414" height="71" rx="12" transform="translate(824 -410) rotate(90)"/><rect class="cls-1" x="410" y="997.4" width="414" height="71" rx="12" transform="translate(1649.9 415.9) rotate(90)"/><rect class="cls-1" x="712" y="288.45" width="414" height="71" rx="12" transform="translate(1797.9 -96.81) rotate(135)"/><rect class="cls-1" x="128" y="872.45" width="414" height="71" rx="12" transform="translate(1213.9 1313.09) rotate(135)"/></g><g id="Layer_1-2" data-name="Layer 1"><g class="cls-2"><circle class="cls-3" cx="617" cy="624.45" r="617"/></g><circle class="cls-4" cx="617" cy="624.45" r="175"/><circle class="cls-5" cx="617" cy="624.45" r="97.78"/><circle class="cls-6" cx="617" cy="624.45" r="53.06"/><path class="cls-6" d="M508.14,616.87q-.28,3.95-.29,8c0,2.42.07,4.82.23,7.2H416c-6.65,0-12-3.4-12-7.58s5.39-7.58,12-7.58Z"/><path class="cls-6" d="M830,624.45c0,4.18-5.39,7.58-12,7.58H726.68c.16-2.38.23-4.78.23-7.2q0-4-.29-8H818C824.61,616.87,830,620.27,830,624.45Z"/><path class="cls-6" d="M624.58,423.49v92c-2.38-.16-4.78-.23-7.2-.23q-4,0-8,.29v-92.1c0-6.65,3.4-12,7.58-12S624.58,416.84,624.58,423.49Z"/><path class="cls-6" d="M617.38,734.36c2.42,0,4.82-.07,7.2-.23v91.28c0,6.65-3.4,12-7.58,12s-7.58-5.39-7.58-12V734.07Q613.37,734.36,617.38,734.36Z"/><path class="cls-6" d="M480.26,477l65.21,65.21a110.69,110.69,0,0,0-10.72,10.72l-65.21-65.21c-4.7-4.7-6.11-10.91-3.16-13.88S475.56,472.29,480.26,477Z"/><path class="cls-6" d="M767.62,775.07c-3,2.95-9.18,1.54-13.88-3.16l-64.45-64.45A113,113,0,0,0,700,696.74l64.45,64.45C769.16,765.89,770.57,772.1,767.62,775.07Z"/><path class="cls-6" d="M545.07,707.1l-64.81,64.81c-4.7,4.7-10.91,6.11-13.88,3.16s-1.54-9.18,3.16-13.88l64.86-64.86A109.57,109.57,0,0,0,545.07,707.1Z"/><path class="cls-6" d="M764.46,487.71l-64.81,64.81a110.69,110.69,0,0,0-10.77-10.67L753.74,477c4.7-4.7,10.91-6.11,13.88-3.16S769.16,483,764.46,487.71Z"/></g><g id="Layer_3" data-name="Layer 3"><text class="cls-7" transform="translate(193.2 629.91)">Angular<tspan class="cls-8" x="127.78" y="0">P</tspan><tspan class="cls-9" x="149.73" y="0">ay</tspan></text><text class="cls-7" transform="translate(241.35 250.51) rotate(45)">Social Networking</text><text class="cls-7" transform="translate(968.54 267.29) rotate(135)">C<tspan class="cls-10" x="24.09" y="0">r</tspan><tspan x="37.17" y="0">owd Funding</tspan></text><text class="cls-7" transform="translate(609.27 187.29) rotate(90)">Fun &amp; <tspan class="cls-11" x="100.53" y="0">F</tspan><tspan class="cls-9" x="120.09" y="0">amily</tspan></text><text class="cls-7" transform="matrix(-0.71, -0.71, -0.71, 0.71, 976.99, 979.69)">CryptoCur<tspan class="cls-10" x="167.37" y="0">r</tspan><tspan x="180.45" y="0">ency</tspan></text><text class="cls-12" transform="translate(969.2 613.99) rotate(-178.05)">F<tspan class="cls-13" x="19.56" y="0">o</tspan><tspan class="cls-10" x="40.02" y="0">r</tspan><tspan class="cls-14" x="53.1" y="0">e</tspan><tspan class="cls-13" x="72.91" y="0">x</tspan></text><text class="cls-7" transform="translate(214.79 1041.03) rotate(-45)">Financial Investments</text><text class="cls-7" transform="translate(609.5 878.06) rotate(90)">Subscriptions</text></g></g></svg>