<svg width="888" height="888" viewBox="0 0 888 888" fill="none" xmlns="http://www.w3.org/2000/svg">
<path d="M888 679.142H0V679.586H888V679.142Z" fill="#EBEBEB"/>
<path d="M799.022 707.718H740.201V708.162H799.022V707.718Z" fill="#EBEBEB"/>
<path d="M588.247 712.549H572.813V712.993H588.247V712.549Z" fill="#EBEBEB"/>
<path d="M738.425 691.237H704.344V691.681H738.425V691.237Z" fill="#EBEBEB"/>
<path d="M169.874 694.221H93.1689V694.665H169.874V694.221Z" fill="#EBEBEB"/>
<path d="M196.94 694.221H185.698V694.665H196.94V694.221Z" fill="#EBEBEB"/>
<path d="M399.866 701.715H233.49V702.159H399.866V701.715Z" fill="#EBEBEB"/>
<path d="M420.912 599.933H77.9845C75.2981 599.928 72.7232 598.858 70.8253 596.956C68.9273 595.055 67.8613 592.478 67.8613 589.792V107.732C67.8847 105.061 68.961 102.507 70.8565 100.625C72.7519 98.7429 75.3134 97.6846 77.9845 97.68H420.912C423.602 97.68 426.181 98.7484 428.083 100.65C429.985 102.552 431.053 105.131 431.053 107.821V589.792C431.053 592.481 429.985 595.061 428.083 596.963C426.181 598.864 423.602 599.933 420.912 599.933ZM77.9845 98.0352C75.4158 98.0399 72.9539 99.0636 71.1392 100.882C69.3245 102.7 68.3053 105.163 68.3053 107.732V589.792C68.3053 592.361 69.3245 594.824 71.1392 596.642C72.9539 598.46 75.4158 599.484 77.9845 599.489H420.912C423.483 599.484 425.947 598.461 427.764 596.643C429.582 594.826 430.605 592.362 430.609 589.792V107.732C430.605 105.162 429.582 102.698 427.764 100.881C425.947 99.063 423.483 98.0399 420.912 98.0352H77.9845Z" fill="#EBEBEB"/>
<path d="M805.079 599.933H462.133C459.445 599.928 456.868 598.858 454.968 596.957C453.067 595.057 451.997 592.48 451.992 589.792V107.732C452.02 105.059 453.1 102.506 454.999 100.624C456.897 98.7422 459.46 97.6845 462.133 97.68H805.079C807.747 97.6892 810.304 98.7496 812.195 100.631C814.087 102.513 815.161 105.064 815.184 107.732V589.792C815.184 592.475 814.121 595.049 812.227 596.95C810.332 598.851 807.762 599.923 805.079 599.933ZM462.133 98.0352C459.563 98.0399 457.099 99.063 455.282 100.881C453.464 102.698 452.441 105.162 452.436 107.732V589.792C452.441 592.362 453.464 594.826 455.282 596.643C457.099 598.461 459.563 599.484 462.133 599.489H805.079C807.649 599.484 810.113 598.461 811.93 596.643C813.748 594.826 814.771 592.362 814.776 589.792V107.732C814.771 105.162 813.748 102.698 811.93 100.881C810.113 99.063 807.649 98.0399 805.079 98.0352H462.133Z" fill="#EBEBEB"/>
<path d="M370.882 468.651H343.531V679.142H370.882V468.651Z" fill="#F0F0F0"/>
<path d="M104.144 679.142H343.531V468.651H104.144L104.144 679.142Z" fill="#F5F5F5"/>
<path d="M101.978 660.654H312.149V548.074H101.978V660.654Z" fill="#FAFAFA"/>
<path d="M101.978 536.139H312.149V499.074H101.978V536.139Z" fill="#FAFAFA"/>
<g style="mix-blend-mode:multiply" opacity="0.7">
<path d="M314.014 548.074H312.132V660.654H314.014V548.074Z" fill="#E6E6E6"/>
</g>
<g style="mix-blend-mode:multiply" opacity="0.7">
<path d="M314.014 499.074H312.132V536.139H314.014V499.074Z" fill="#E6E6E6"/>
</g>
<g style="mix-blend-mode:multiply" opacity="0.7">
<path d="M370.882 477.531H103.541V482.291H370.882V477.531Z" fill="#E6E6E6"/>
</g>
<path d="M374.078 465.774H343.531V479.538H374.078V465.774Z" fill="#F0F0F0"/>
<path d="M100.947 479.538L343.531 479.538V465.774L100.947 465.774V479.538Z" fill="#F5F5F5"/>
<path d="M780.605 428.709H708.127V679.142H780.605V428.709Z" fill="#E0E0E0"/>
<path d="M415.176 679.142H765.136L782.364 422.137H432.403L415.176 679.142Z" fill="#E6E6E6"/>
<path d="M409.243 679.142H759.222L776.431 422.137H426.47L409.243 679.142Z" fill="#F0F0F0"/>
<path d="M430.68 664.135H739.792L754.995 437.145H445.882L430.68 664.135Z" fill="white"/>
<path d="M327.121 458.048H320.728V353.69C320.732 352.844 321.07 352.034 321.669 351.435C322.268 350.837 323.078 350.498 323.924 350.494C324.771 350.498 325.581 350.837 326.18 351.435C326.778 352.034 327.116 352.844 327.121 353.69V458.048Z" fill="#F5F5F5"/>
<path d="M343.781 465.774H304.069L306.058 462.222C306.86 460.793 308.028 459.604 309.442 458.777C310.856 457.95 312.465 457.514 314.104 457.515H333.764C335.402 457.518 337.009 457.955 338.423 458.782C339.836 459.608 341.005 460.796 341.809 462.222L343.781 465.774Z" fill="#F0F0F0"/>
<path d="M293.608 387.434C293.608 387.434 294.372 357.615 323.925 357.615C353.477 357.615 354.259 387.434 354.259 387.434H293.608Z" fill="#E0E0E0"/>
<path d="M162.397 316.75L758.813 316.75V136.503L162.397 136.503V316.75Z" fill="#E6E6E6"/>
<path d="M146.13 316.75L755.031 316.75V136.503L146.13 136.503V316.75Z" fill="#F0F0F0"/>
<path d="M162.397 316.75H758.814V329.643H154.796L162.397 316.75Z" fill="#E6E6E6"/>
<path d="M132.703 316.75H741.605L738.088 329.643H129.187L132.703 316.75Z" fill="#F0F0F0"/>
<path d="M732.263 293.981V159.272L168.898 159.272V293.981H732.263Z" fill="#FAFAFA"/>
<path d="M650.868 293.981L574.624 159.272H501.826L578.07 293.981H650.868Z" fill="white"/>
<path d="M562.424 293.981L486.198 159.272H457.817L534.043 293.981H562.424Z" fill="white"/>
<path d="M171.792 293.981V159.272H168.897V293.981H171.792Z" fill="#E6E6E6"/>
<path d="M444 759.347C634.179 759.347 788.349 750.346 788.349 739.242C788.349 728.139 634.179 719.138 444 719.138C253.822 719.138 99.6514 728.139 99.6514 739.242C99.6514 750.346 253.822 759.347 444 759.347Z" fill="#F5F5F5"/>
<path d="M350.956 715.533L364.329 710.595L354.081 679.071L340.708 684.009L350.956 715.533Z" fill="#FFC3BD"/>
<path d="M362.056 700.952L347.386 706.102C347.127 706.191 346.909 706.373 346.775 706.612C346.641 706.851 346.599 707.131 346.658 707.399L349.41 719.937C349.487 720.25 349.628 720.543 349.824 720.799C350.02 721.055 350.266 721.267 350.548 721.422C350.831 721.577 351.142 721.672 351.463 721.701C351.783 721.73 352.107 721.691 352.412 721.589C357.74 719.635 365.181 716.651 371.823 714.325C379.602 711.59 381.947 711.785 390.685 707.736C396.013 705.303 394.396 699.424 391.91 699.993C380.597 702.515 377.382 703.101 365.767 700.845C364.542 700.551 363.261 700.588 362.056 700.952Z" fill="#263238"/>
<path opacity="0.2" d="M354.081 679.071L359.374 695.322L345.983 700.259L340.69 684.009L354.081 679.071Z" fill="black"/>
<path d="M364.897 701.36C364.836 701.361 364.775 701.342 364.725 701.307C364.674 701.272 364.635 701.222 364.613 701.165C364.573 701.108 364.551 701.039 364.551 700.969C364.551 700.899 364.573 700.831 364.613 700.774C365.128 700.241 369.728 695.535 371.717 695.89C371.897 695.925 372.065 696.008 372.202 696.13C372.339 696.252 372.442 696.408 372.498 696.583C372.617 696.869 372.666 697.179 372.642 697.488C372.617 697.797 372.519 698.095 372.356 698.359C371.273 700.135 367.242 701.023 364.951 701.342L364.897 701.36ZM371.433 696.565C370.314 696.565 367.703 698.732 365.874 700.508C369 699.975 371.202 699.069 371.788 698.021C371.88 697.84 371.928 697.639 371.928 697.435C371.928 697.232 371.88 697.031 371.788 696.849C371.765 696.778 371.723 696.714 371.666 696.664C371.61 696.614 371.542 696.58 371.468 696.565H371.433Z" fill="#462AA5"/>
<path d="M364.897 701.36H364.808C364.751 701.343 364.7 701.311 364.66 701.267C364.619 701.223 364.591 701.17 364.578 701.112C364.578 700.952 363.832 697.133 365.11 695.091C365.473 694.501 366.054 694.08 366.727 693.919C367.632 693.706 368.023 694.061 368.183 694.416C368.893 695.872 366.531 699.957 365.128 701.271C365.097 701.301 365.061 701.324 365.022 701.339C364.982 701.354 364.94 701.361 364.897 701.36ZM367.206 694.522H366.851C366.605 694.576 366.373 694.682 366.171 694.832C365.969 694.982 365.801 695.173 365.679 695.393C365.023 696.92 364.838 698.608 365.146 700.241C366.496 698.643 368.005 695.535 367.579 694.665C367.632 694.665 367.49 694.522 367.206 694.522Z" fill="#462AA5"/>
<path d="M289.684 554.947C258.604 486.731 234.912 457.569 237.31 420.894L287.411 415.762C287.411 415.762 316.821 504.384 325.186 546.564C333.889 590.396 360.529 684.826 360.529 684.826L338.382 691.024C338.382 691.024 295.03 604.089 289.684 554.947Z" fill="#462AA5"/>
<path opacity="0.2" d="M242.3 454.976C247.628 471.084 256.987 488.613 268.656 511.541C269.259 512.678 269.863 513.815 270.432 514.987C268.336 487.157 266.578 463.731 242.3 454.976Z" fill="black"/>
<path d="M361.364 678.095L363.051 687.987L339.554 697.382L335.31 689.035L361.364 678.095Z" fill="#263238"/>
<path d="M217.294 697.364L216.175 730.487L232.017 730.273L233.153 697.133L217.294 697.364Z" fill="#FFC3BD"/>
<path d="M231.822 723.098L216.246 723.347C215.973 723.35 215.71 723.452 215.507 723.636C215.304 723.819 215.175 724.07 215.145 724.342L213.795 737.076C213.768 737.399 213.809 737.724 213.914 738.03C214.02 738.337 214.189 738.618 214.41 738.855C214.63 739.093 214.898 739.281 215.196 739.409C215.494 739.537 215.815 739.601 216.14 739.598C221.734 739.402 223.51 738.958 230.561 738.834C238.819 738.71 241.359 739.047 251.038 738.834C256.899 738.727 257.84 732.813 255.336 732.28C247.397 730.629 238.961 727.467 235.391 724.093C234.371 723.321 233.095 722.965 231.822 723.098Z" fill="#263238"/>
<path opacity="0.2" d="M217.294 697.364L216.708 714.449L232.568 714.218L233.154 697.151L217.294 697.364Z" fill="black"/>
<path d="M228.998 724.182C228.936 724.185 228.874 724.17 228.82 724.138C228.767 724.106 228.723 724.06 228.696 724.004C228.657 723.95 228.636 723.885 228.636 723.818C228.636 723.751 228.657 723.686 228.696 723.631C229.193 723.081 233.509 718.303 235.48 718.587C235.663 718.613 235.835 718.685 235.982 718.797C236.128 718.909 236.243 719.057 236.315 719.227C236.458 719.501 236.533 719.806 236.533 720.115C236.533 720.424 236.458 720.729 236.315 721.003C235.356 722.868 231.324 723.809 229.015 724.2L228.998 724.182ZM235.285 719.245C234.13 719.245 231.733 721.5 229.957 723.329C233.1 722.69 235.285 721.713 235.782 720.683C235.878 720.503 235.929 720.301 235.929 720.097C235.929 719.893 235.878 719.691 235.782 719.511C235.753 719.443 235.707 719.384 235.648 719.34C235.588 719.296 235.518 719.269 235.445 719.262L235.285 719.245Z" fill="#462AA5"/>
<path d="M228.998 724.182H228.909C228.85 724.166 228.795 724.134 228.752 724.09C228.708 724.047 228.677 723.993 228.66 723.933C228.66 723.773 227.595 720.044 228.767 718.001C228.927 717.705 229.148 717.444 229.413 717.236C229.679 717.028 229.985 716.878 230.312 716.794C230.573 716.673 230.869 716.65 231.145 716.728C231.422 716.806 231.662 716.981 231.822 717.22C232.639 718.641 230.561 722.743 229.229 724.093C229.166 724.151 229.083 724.183 228.998 724.182ZM230.774 717.38H230.436C230.195 717.44 229.97 717.55 229.774 717.703C229.578 717.856 229.417 718.048 229.3 718.268C228.748 719.81 228.686 721.484 229.122 723.063C230.383 721.447 231.68 718.339 231.182 717.486C231.098 717.414 230.991 717.377 230.88 717.38H230.774Z" fill="#462AA5"/>
<path d="M217.49 566.171C212.996 515.093 198.735 460.908 205.875 423.683L258.196 419.136C258.196 419.136 263.95 524.293 258.196 567.805C252.282 613.057 236.884 703.971 236.884 703.971L213.796 704.308C213.796 704.308 211.345 616.272 217.49 566.171Z" fill="#462AA5"/>
<path d="M240.329 698.838L238.819 708.677L212.996 709.139L211.54 699.833L240.329 698.838Z" fill="#263238"/>
<path d="M335.434 266.205C335.476 265.505 335.38 264.804 335.151 264.141C334.922 263.479 334.564 262.868 334.099 262.344C333.634 261.819 333.07 261.391 332.44 261.085C331.81 260.778 331.125 260.599 330.425 260.557C329.012 260.472 327.624 260.952 326.564 261.891C325.505 262.831 324.863 264.152 324.778 265.565V265.832C323.961 269.384 323.002 273.309 322.132 276.967C321.261 280.626 320.107 284.267 318.846 287.623C317.756 290.846 316.346 293.952 314.637 296.894C314.001 297.998 313.244 299.029 312.381 299.966C309.17 299.506 305.986 298.872 302.844 298.066C298.493 296.929 293.964 295.562 289.595 294.088C285.226 292.614 280.715 291.015 276.24 289.346C271.764 287.676 267.36 285.918 263.044 284.267H262.849C260.228 283.305 257.337 283.393 254.779 284.511C252.221 285.63 250.194 287.692 249.119 290.269C248.045 292.846 248.007 295.738 249.013 298.342C250.019 300.946 251.992 303.061 254.519 304.247C259.332 306.413 263.95 308.118 268.727 309.912C273.505 311.706 278.318 313.233 283.255 314.654C288.192 316.075 293.201 317.336 298.44 318.312C304.023 319.465 309.72 319.965 315.418 319.804H315.969C317.421 319.735 318.832 319.302 320.071 318.543C322.827 316.837 325.207 314.589 327.069 311.937C328.594 309.767 329.881 307.439 330.905 304.992C331.856 302.815 332.628 300.564 333.214 298.261C333.8 296.059 334.279 293.875 334.635 291.726C335.334 287.49 335.749 283.212 335.878 278.921C336.014 274.677 335.865 270.429 335.434 266.205Z" fill="#FFC3BD"/>
<path d="M331.899 273.504L345.788 267.554L334.19 254.661C334.19 254.661 321.208 261.143 324.458 268.869L331.899 273.504Z" fill="#FFC3BD"/>
<path d="M351.276 257.733L346.321 251.784C345.704 251.05 344.853 250.552 343.911 250.374C342.969 250.195 341.994 250.349 341.152 250.807L334.279 254.572L345.877 267.466L350.725 263.7C351.165 263.353 351.529 262.92 351.796 262.427C352.063 261.934 352.227 261.393 352.279 260.835C352.33 260.277 352.268 259.714 352.096 259.181C351.923 258.648 351.644 258.155 351.276 257.733Z" fill="#FFC3BD"/>
<path d="M254.057 279.081C268.141 278.086 296.059 294.265 296.059 294.265L282.384 323.339C273.929 321.548 265.863 318.258 258.568 313.624C254.572 311.155 237.363 280.271 254.057 279.081Z" fill="#263238"/>
<path d="M255.744 279.045C236.971 279.701 218.353 282.684 200.315 287.925C191.79 290.607 184.331 298.581 185.929 307.355C189.641 328.667 197.74 364.275 201.913 426.009C209.515 428.211 234.681 426.098 252.281 424.357C254.199 424.18 258.763 419.562 258.763 419.562C258.763 419.562 263.079 423.114 265.512 422.759C277.162 420.983 286.398 418.781 288.493 416.419C286.717 398.907 282.064 360.51 279.4 335.575C279.045 325.736 277.518 307.603 273.468 297.32C269.614 287.57 266.116 278.832 255.744 279.045Z" fill="#263238"/>
<path d="M219.585 258.337C221.912 268.798 221.13 279.986 215.163 287.552C219.55 294.07 229.762 299.185 239.903 301.76C246.35 294.035 245.994 285.954 243.082 281.691C243.082 275.742 242.425 271.586 242.638 267.128L219.585 258.337Z" fill="#FFC3BD"/>
<path d="M239.902 301.725C241.212 299.947 242.06 297.872 242.371 295.686C242.637 292.489 248.232 294.603 248.232 294.603C246.113 297.653 243.245 300.106 239.902 301.725Z" fill="#E0E0E0"/>
<path d="M239.902 301.725C239.579 300.575 238.912 299.551 237.992 298.79C237.072 298.029 235.942 297.565 234.752 297.462C231.957 297.096 229.115 297.37 226.44 298.261C226.44 298.261 234.432 301.92 239.902 301.725Z" fill="#E0E0E0"/>
<path opacity="0.2" d="M227.007 255.442H226.831C226.919 255.583 226.989 255.548 227.007 255.442Z" fill="black"/>
<path opacity="0.2" d="M242.655 267.11L224.504 259.065C222.728 268.638 232.212 273.38 242.886 275.191C242.67 272.503 242.593 269.806 242.655 267.11Z" fill="black"/>
<path d="M242.851 223.154C256.188 221.627 259.208 230.969 253.311 243.046C250.122 240.79 247.512 237.812 245.694 234.355C243.876 230.898 242.901 227.06 242.851 223.154Z" fill="#263238"/>
<path d="M215.323 240.63C217.987 254.536 218.04 263.47 227.009 268.176C246.882 278.619 255.425 269.632 256.935 255.176C258.338 242.158 253.756 221.592 239.317 217.88C236.117 217.062 232.762 217.069 229.566 217.9C226.369 218.731 223.436 220.359 221.039 222.631C218.643 224.904 216.862 227.747 215.862 230.894C214.862 234.042 214.677 237.392 215.323 240.63Z" fill="#FFC3BD"/>
<path d="M219.23 250.416C224.558 251.712 226.725 249.67 226.92 248.889C225.544 248.689 224.208 248.275 222.959 247.663C222.959 247.663 225.943 246.722 226.245 244.626C223.847 244.626 219.319 241.074 220.757 237.291C222.196 233.508 221.663 232.549 219.23 231.555C214.703 230.376 209.984 230.128 205.359 230.827C206.18 231.557 207.108 232.156 208.112 232.603C208.112 232.603 202.784 235.302 205.359 239.707C207.934 244.111 213.245 247.805 212.819 250.469C217.081 252.05 219.23 250.416 219.23 250.416Z" fill="#263238"/>
<path d="M252.192 218.111C257.023 218.111 259.722 215.34 260.06 212.232C255.921 214.576 249.936 213.386 238.943 209.604C228.908 206.052 221.787 208.147 216.992 211.895C217.08 209.763 221.094 206.442 221.094 206.442C221.094 206.442 211.592 206.442 207.01 213.937C203.352 219.922 207.206 223.083 207.206 223.083C207.206 223.083 199.338 222.977 197.029 229.282C202.162 226.973 204.897 229.708 204.897 229.708C203.741 230.605 202.453 231.318 201.079 231.821C202.73 234.61 207.401 233.171 207.401 233.171C215.535 237.984 239.937 230.88 243.791 229.104C241.69 228.818 239.636 228.257 237.682 227.435C237.682 227.435 253.382 222.551 259.882 226.262C261.072 223.314 256.348 219.283 252.192 218.111Z" fill="#462AA5"/>
<path d="M251.535 256.65C251.535 256.65 247.255 255.566 235.355 255.336C236.086 257.451 237.496 259.265 239.366 260.496C241.236 261.726 243.46 262.303 245.692 262.138C246.447 262.211 247.21 262.123 247.928 261.878C248.647 261.634 249.304 261.238 249.858 260.719C250.411 260.199 250.847 259.567 251.136 258.865C251.425 258.164 251.561 257.408 251.535 256.65Z" fill="#263238"/>
<path d="M242.762 259.296C245.139 259.205 247.483 259.871 249.458 261.196C248.35 261.945 247.027 262.307 245.693 262.226C243.317 262.306 240.976 261.642 238.997 260.326C240.106 259.58 241.428 259.218 242.762 259.296Z" fill="#ED847E"/>
<path d="M250.985 256.543C250.683 257.307 250.381 258.088 249.209 258.319C245.661 258.25 242.125 257.876 238.641 257.2C238.074 257.147 237.527 256.958 237.048 256.649C236.569 256.34 236.171 255.92 235.889 255.424C240.943 255.393 245.991 255.767 250.985 256.543Z" fill="white"/>
<path opacity="0.2" d="M234.93 253.24C234.93 253.24 231.644 252.885 232.195 255.513C232.657 254.394 234.93 253.24 234.93 253.24Z" fill="black"/>
<path opacity="0.2" d="M232.834 242.016C230.945 241.242 228.827 241.242 226.938 242.016C228.885 242.396 230.887 242.396 232.834 242.016Z" fill="black"/>
<path opacity="0.2" d="M232.657 243.436C231.75 243.254 230.814 243.273 229.915 243.491C229.016 243.708 228.176 244.12 227.453 244.697C229.257 244.647 231.03 244.218 232.657 243.436Z" fill="black"/>
<path opacity="0.2" d="M252.459 239.476C252.459 239.476 253.951 237.806 255.087 238.339C254.34 238.965 253.427 239.36 252.459 239.476Z" fill="black"/>
<path opacity="0.2" d="M252.459 240.524C252.459 240.524 253.898 239.44 254.732 240.524C254.372 240.674 253.986 240.752 253.596 240.752C253.205 240.752 252.819 240.674 252.459 240.524Z" fill="black"/>
<path d="M210.563 252.547C211.672 255.583 213.939 258.055 216.868 259.42C220.775 261.196 223.404 257.857 222.906 253.826C222.445 250.274 219.87 244.946 215.678 244.839C214.761 244.837 213.858 245.062 213.05 245.494C212.242 245.927 211.553 246.553 211.046 247.317C210.539 248.08 210.23 248.958 210.146 249.871C210.061 250.784 210.205 251.703 210.563 252.547Z" fill="#FFC3BD"/>
<path d="M234.912 242.584C235.072 243.72 235.782 244.573 236.528 244.466C237.274 244.36 237.771 243.365 237.629 242.211C237.487 241.057 236.759 240.222 236.013 240.328C235.267 240.435 234.77 241.536 234.912 242.584Z" fill="#263238"/>
<path d="M249.173 240.666C249.316 241.802 250.044 242.655 250.79 242.548C251.536 242.442 252.015 241.429 251.873 240.293C251.731 239.156 251.003 238.304 250.257 238.41C249.511 238.517 249.014 239.511 249.173 240.666Z" fill="#263238"/>
<path d="M244.449 241.358C246.404 244.59 248.794 247.536 251.553 250.114C250.863 250.812 250.029 251.351 249.108 251.691C248.187 252.032 247.203 252.166 246.225 252.085L244.449 241.358Z" fill="#ED847E"/>
<path d="M231.307 237.398C231.201 237.422 231.092 237.422 230.987 237.398C230.908 237.356 230.839 237.297 230.783 237.227C230.727 237.157 230.687 237.076 230.663 236.99C230.64 236.903 230.635 236.813 230.647 236.724C230.66 236.636 230.691 236.551 230.738 236.474C231.244 235.519 231.97 234.698 232.856 234.081C233.743 233.463 234.764 233.066 235.835 232.922C235.924 232.918 236.013 232.93 236.096 232.96C236.18 232.989 236.257 233.035 236.323 233.095C236.389 233.154 236.443 233.226 236.481 233.306C236.519 233.386 236.541 233.473 236.546 233.562C236.553 233.649 236.543 233.738 236.515 233.821C236.487 233.905 236.443 233.982 236.385 234.049C236.327 234.115 236.257 234.169 236.177 234.207C236.098 234.246 236.012 234.268 235.924 234.272C235.081 234.396 234.279 234.717 233.582 235.207C232.885 235.697 232.312 236.344 231.91 237.096C231.845 237.195 231.755 237.275 231.649 237.328C231.543 237.381 231.425 237.405 231.307 237.398Z" fill="#263238"/>
<path d="M253.08 233.26C252.973 233.289 252.86 233.292 252.751 233.267C252.643 233.242 252.542 233.191 252.458 233.118C251.851 232.529 251.113 232.092 250.303 231.845C249.494 231.598 248.638 231.547 247.805 231.697C247.719 231.721 247.629 231.727 247.54 231.714C247.451 231.702 247.366 231.671 247.289 231.625C247.213 231.578 247.147 231.516 247.095 231.443C247.043 231.37 247.007 231.287 246.988 231.2C246.945 231.028 246.971 230.846 247.061 230.693C247.15 230.54 247.297 230.429 247.468 230.383C248.524 230.178 249.614 230.232 250.644 230.542C251.674 230.851 252.614 231.406 253.382 232.159C253.506 232.288 253.575 232.46 253.575 232.638C253.575 232.817 253.506 232.989 253.382 233.118C253.298 233.195 253.193 233.245 253.08 233.26Z" fill="#263238"/>
<path d="M217.116 375.233H216.814C212.96 374.381 208.787 373.457 204.915 372.25C201.104 371.17 197.371 369.829 193.744 368.236C190.534 366.914 187.541 365.118 184.864 362.908C183.895 362.096 183.067 361.13 182.413 360.049C182.226 359.7 182.066 359.338 181.934 358.965C181.934 358.859 182.076 358.432 182.129 358.13L182.484 356.941L182.928 355.591C183.603 353.708 184.42 351.63 185.326 349.57C187.102 345.45 189.215 341.205 191.347 336.978C193.478 332.751 195.698 328.507 197.936 324.28L204.702 311.635C206.05 309.138 206.364 306.213 205.578 303.487C204.792 300.761 202.968 298.452 200.498 297.057C198.027 295.661 195.109 295.29 192.368 296.024C189.627 296.757 187.284 298.536 185.841 300.979C183.212 305.383 180.921 309.734 178.577 314.174C176.233 318.614 174.048 323.054 171.97 327.743C169.892 332.432 167.868 337.049 166.074 341.951C165.186 344.455 164.298 346.995 163.57 349.801L163.055 351.985C162.895 352.785 162.735 353.531 162.593 354.383C162.439 355.312 162.333 356.249 162.273 357.189C162.273 357.757 162.273 358.13 162.273 358.841C162.273 359.551 162.273 360.173 162.38 360.83V360.972C162.415 361.357 162.486 361.737 162.593 362.109C163.482 365.496 165.08 368.656 167.282 371.379C169.245 373.759 171.549 375.835 174.119 377.542C178.535 380.361 183.383 382.436 188.469 383.687C193.058 384.859 197.741 385.62 202.464 385.96C207.092 386.333 211.743 386.333 216.37 385.96C217.783 386.055 219.176 385.584 220.242 384.651C221.308 383.718 221.959 382.401 222.054 380.988C222.148 379.575 221.677 378.182 220.744 377.116C219.812 376.05 218.494 375.399 217.081 375.304L217.116 375.233Z" fill="#FFC3BD"/>
<path d="M199.357 288.192C183.479 292.525 167.389 333.071 167.389 333.071L191.453 352.216C191.453 352.216 206.301 339.323 209.586 324.084C212.055 312.398 215.5 283.769 199.357 288.192Z" fill="#263238"/>
<path d="M208.733 374.505L222.124 369.071L223.9 386.316C223.9 386.316 211.184 389.761 208.254 383.296L208.733 374.505Z" fill="#FFC3BD"/>
<path d="M235.995 374.736L235.604 380.881C235.525 382.065 235.029 383.183 234.203 384.036C233.376 384.888 232.274 385.419 231.093 385.534L223.882 386.244L222.106 369L231.2 369.408C231.868 369.433 232.524 369.591 233.13 369.874C233.735 370.158 234.278 370.56 234.725 371.057C235.173 371.554 235.515 372.135 235.734 372.767C235.952 373.4 236.04 374.069 235.995 374.736Z" fill="#FFC3BD"/>
<path d="M217.862 281.514C218.27 284.782 220.348 295.722 234.752 297.498C229.637 298.723 229.584 307.035 229.584 307.035C229.584 307.035 210.829 297.249 213.6 284.089C214.663 282.744 216.177 281.83 217.862 281.514Z" fill="white"/>
<path d="M243.153 278.264C242.797 281.709 243.792 286.38 242.371 295.686C247.504 294.55 250.328 301.725 250.328 301.725C250.328 301.725 254.217 288.884 246.243 278.885C245.242 278.554 244.204 278.345 243.153 278.264Z" fill="white"/>
<path d="M501.95 245.869C509.463 236.066 523.262 224.451 535.907 235.728C547.629 246.225 547.203 278.352 533.545 287.073C533.989 272.012 510.226 271.426 515.004 253.044C512.556 256.282 509.549 259.054 506.124 261.232L501.95 245.869Z" fill="#263238"/>
<path d="M498.7 241.767C505.076 239.991 506.728 239.227 509.356 240.364C511.985 241.5 511.008 246.562 513.352 250.345C515.696 254.128 518.787 257.183 511.185 260.859C507.83 258.789 504.971 256.005 502.813 252.706C500.655 249.406 499.251 245.671 498.7 241.767Z" fill="#462AA5"/>
<path d="M473.197 238.179C444.639 230.329 444.124 271.923 449.345 296.787C451.151 291.441 454.041 286.526 457.835 282.349L482.308 300.233C499.588 294.905 529.603 275.031 505.396 250.274C496.249 221.609 473.197 238.179 473.197 238.179Z" fill="#263238"/>
<path d="M510.813 688.395L528.36 689.674C525.945 703.651 523.654 725.727 523.654 725.727H509.712C509.712 725.727 511.328 697.968 510.813 688.395Z" fill="#B55B52"/>
<path d="M418.674 688.395L436.096 689.674C432.171 703.651 427.554 725.727 427.554 725.727H413.63C413.63 725.727 418.176 697.968 418.674 688.395Z" fill="#B55B52"/>
<path d="M494.651 739.526C506.746 739.526 505.894 739.331 512.713 739.1C518.539 738.905 519.817 739.633 524.577 739.526C528.484 739.526 528.609 735.69 527.721 731.392C527.383 729.741 526.868 727.84 526.389 725.443C526.26 724.777 525.901 724.177 525.375 723.749C524.849 723.32 524.19 723.09 523.511 723.098H509.303C508.785 723.1 508.274 723.223 507.811 723.457C507.349 723.691 506.947 724.031 506.639 724.448C504.957 726.655 502.842 728.494 500.423 729.853C498.004 731.212 495.333 732.062 492.574 732.351C486.056 733.222 489.839 739.526 494.651 739.526Z" fill="#462AA5"/>
<path d="M392.621 734.074C404.271 736.063 405.603 735.53 412.157 736.436C417.858 737.218 418.319 738.532 424.02 739.526C427.785 740.183 429.952 736.134 429.792 732.795C429.792 730.788 429.295 728.444 429.313 725.975C429.337 725.338 429.126 724.715 428.72 724.223C428.314 723.732 427.741 723.407 427.111 723.312L414.98 721.216C414.503 721.136 414.014 721.154 413.543 721.271C413.073 721.387 412.631 721.598 412.245 721.891C409.549 724.028 406.451 725.602 403.134 726.517C399.818 727.432 396.351 727.671 392.94 727.219C386.511 726.633 387.95 733.257 392.621 734.074Z" fill="#462AA5"/>
<path d="M437.588 415.442C437.588 415.442 426.595 500.974 427.554 555.302C423.38 606.309 416.667 703.864 416.667 703.864C416.88 706.457 430.626 705.427 433.059 703.864C433.059 703.864 464.566 638.028 459.433 555.302C494.438 469.024 492.342 415.442 492.342 415.442H437.588Z" fill="#462AA5"/>
<path opacity="0.2" d="M482.593 484.511C479.875 495.664 476.394 508.007 471.937 521.451C470.622 494.367 463.305 458.119 463.057 456.894L482.593 484.511Z" fill="black"/>
<path d="M452.489 415.442C452.489 415.442 477.513 511.985 487.423 559.404C497.831 609.133 512.412 670.777 509.517 703.864C512.305 705.498 522.268 705.64 527.898 703.864C527.898 703.864 549.317 609.541 522.073 561.607C531.93 443.645 500.761 415.442 500.761 415.442H452.489Z" fill="#462AA5"/>
<path d="M508.327 696.973C508.209 699.252 507.93 701.519 507.492 703.758C507.448 703.943 507.443 704.135 507.478 704.322C507.512 704.508 507.585 704.686 507.692 704.843C507.799 705 507.938 705.133 508.099 705.234C508.26 705.334 508.441 705.4 508.629 705.427C515.324 706.511 525.11 704.948 528.165 704.397C528.454 704.343 528.72 704.202 528.926 703.992C529.132 703.783 529.27 703.515 529.319 703.225L530.509 696.867C530.549 696.666 530.543 696.46 530.493 696.262C530.442 696.063 530.348 695.879 530.216 695.723C530.085 695.566 529.921 695.44 529.735 695.356C529.549 695.271 529.346 695.229 529.141 695.233L509.605 695.606C509.266 695.647 508.951 695.807 508.717 696.057C508.483 696.307 508.345 696.632 508.327 696.973Z" fill="#263238"/>
<path opacity="0.1" d="M508.327 696.973C508.209 699.252 507.93 701.519 507.492 703.758C507.448 703.943 507.443 704.135 507.478 704.322C507.512 704.508 507.585 704.686 507.692 704.843C507.799 705 507.938 705.133 508.099 705.234C508.26 705.334 508.441 705.4 508.629 705.427C515.324 706.511 525.11 704.948 528.165 704.397C528.454 704.343 528.72 704.202 528.926 703.992C529.132 703.783 529.27 703.515 529.319 703.225L530.509 696.867C530.549 696.666 530.543 696.46 530.493 696.262C530.442 696.063 530.348 695.879 530.216 695.723C530.085 695.566 529.921 695.44 529.735 695.356C529.549 695.271 529.346 695.229 529.141 695.233L509.605 695.606C509.266 695.647 508.951 695.807 508.717 696.057C508.483 696.307 508.345 696.632 508.327 696.973Z" fill="white"/>
<path d="M415.335 696.671C415.157 698.447 414.82 701.591 414.483 703.935C414.455 704.115 414.464 704.299 414.508 704.475C414.552 704.652 414.631 704.817 414.74 704.963C414.849 705.109 414.987 705.231 415.144 705.323C415.301 705.415 415.474 705.474 415.655 705.498C421.681 705.992 427.74 705.92 433.752 705.285C434.051 705.258 434.334 705.14 434.563 704.946C434.792 704.752 434.955 704.492 435.031 704.202L436.807 697.861C436.87 697.659 436.886 697.444 436.852 697.235C436.818 697.025 436.736 696.826 436.612 696.654C436.488 696.481 436.325 696.34 436.137 696.242C435.949 696.143 435.74 696.09 435.528 696.085L416.916 695.339C416.724 695.322 416.531 695.343 416.348 695.401C416.165 695.459 415.995 695.553 415.848 695.676C415.701 695.8 415.58 695.952 415.492 696.123C415.404 696.293 415.351 696.48 415.335 696.671Z" fill="#263238"/>
<path opacity="0.1" d="M415.335 696.671C415.157 698.447 414.82 701.591 414.483 703.935C414.455 704.115 414.464 704.299 414.508 704.475C414.552 704.652 414.631 704.817 414.74 704.963C414.849 705.109 414.987 705.231 415.144 705.323C415.301 705.415 415.474 705.474 415.655 705.498C421.681 705.992 427.74 705.92 433.752 705.285C434.051 705.258 434.334 705.14 434.563 704.946C434.792 704.752 434.955 704.492 435.031 704.202L436.807 697.861C436.87 697.659 436.886 697.444 436.852 697.235C436.818 697.025 436.736 696.826 436.612 696.654C436.488 696.481 436.325 696.34 436.137 696.242C435.949 696.143 435.74 696.09 435.528 696.085L416.916 695.339C416.724 695.322 416.531 695.343 416.348 695.401C416.165 695.459 415.995 695.553 415.848 695.676C415.701 695.8 415.58 695.952 415.492 696.123C415.404 696.293 415.351 696.48 415.335 696.671Z" fill="white"/>
<path d="M452.578 326.02C451.475 325.337 450.249 324.878 448.968 324.67C447.688 324.462 446.379 324.509 445.117 324.808C443.855 325.106 442.664 325.651 441.613 326.411C440.562 327.17 439.671 328.13 438.991 329.235C436.469 333.32 434.072 337.511 431.585 341.667C429.099 345.823 426.719 349.979 424.339 354.099C420.45 360.865 416.631 367.668 412.831 374.47C412.032 374.292 411.232 374.097 410.398 373.83C407.4 372.866 404.48 371.679 401.66 370.278C398.694 368.857 395.746 367.224 392.78 365.483C389.814 363.743 386.866 361.931 384.095 360.066L383.847 359.924C382.865 359.282 381.687 359.012 380.524 359.162C379.362 359.312 378.291 359.873 377.504 360.742C376.718 361.612 376.268 362.734 376.236 363.906C376.204 365.078 376.591 366.223 377.329 367.135C378.59 368.733 379.797 370.101 381.111 371.486C382.426 372.871 383.704 374.239 385.072 375.553C387.878 378.201 390.843 380.674 393.952 382.959C397.208 385.35 400.68 387.431 404.324 389.175C408.463 391.204 412.944 392.445 417.537 392.833C418.993 392.935 420.449 392.65 421.759 392.008C423.069 391.365 424.186 390.388 424.996 389.175L425.405 388.571C430.792 380.484 436.049 372.333 441.176 364.116C443.751 360.013 446.273 355.857 448.759 351.684C451.246 347.51 453.732 343.372 456.094 339.109C457.284 336.89 457.583 334.3 456.93 331.868C456.276 329.436 454.72 327.345 452.578 326.02Z" fill="#B55B52"/>
<path d="M362.89 366.336L366.211 369.888C366.825 370.551 367.589 371.058 368.438 371.366C369.287 371.675 370.198 371.777 371.095 371.664L379.584 370.545C381.256 370.321 382.85 369.703 384.236 368.743C385.623 367.783 386.761 366.507 387.558 365.021L388.553 363.245C383.456 356.958 373.315 353.904 373.315 353.904L370.509 352.714C369.943 352.45 369.331 352.303 368.707 352.279C368.084 352.256 367.462 352.357 366.878 352.577C366.294 352.797 365.76 353.131 365.307 353.56C364.854 353.989 364.491 354.505 364.24 355.076L361.806 360.581C361.419 361.544 361.315 362.597 361.507 363.617C361.699 364.636 362.179 365.58 362.89 366.336Z" fill="#B55B52"/>
<path d="M450.838 315.755C438.779 318.028 432.385 328.187 420.521 349.606C423.274 357.58 441.993 365.199 441.993 365.199C441.993 365.199 470.64 331.313 450.838 315.755Z" fill="#263238"/>
<path d="M497.28 400.381C497.57 405.433 498.163 410.462 499.056 415.442H438.228L437.589 399.92C437.589 399.92 484.582 397.256 497.28 400.381Z" fill="#B55B52"/>
<path d="M431.727 337.085C431.366 346.451 431.508 355.83 432.153 365.181C432.668 377.382 430.377 380.384 432.153 400.381C438.831 404.306 482.805 404.147 504.437 401.358C503.122 384.042 501.506 372.374 513.228 333.444C515.945 324.422 509.889 315.684 500.21 314.814C497.617 314.583 494.882 314.37 492.058 314.245C482.183 313.579 472.274 313.579 462.399 314.245C459.184 314.512 455.845 314.903 452.648 315.311C441.176 316.821 432.082 326.269 431.727 337.085Z" fill="#263238"/>
<path d="M490.034 280.892C487.459 290.429 484.28 307.905 490.478 314.281C490.478 314.281 495.237 323.161 467.106 321.776C447.41 320.763 460.836 314.281 460.836 314.281C471.652 311.741 471.972 303.838 470.675 296.432L490.034 280.892Z" fill="#B55B52"/>
<path opacity="0.2" d="M482.13 287.232L470.64 296.414C470.977 298.171 471.156 299.954 471.172 301.742C475.275 301.156 481.189 296.681 481.935 292.436C482.326 290.729 482.392 288.964 482.13 287.232Z" fill="black"/>
<path d="M498.328 263.789C495.611 278.299 494.776 284.48 486.482 291.424C474.05 301.902 456.929 296.361 455.295 281.567C453.821 268.265 458.528 246.775 473.464 241.98C476.64 240.842 480.063 240.575 483.378 241.206C486.692 241.836 489.778 243.342 492.314 245.567C494.851 247.792 496.746 250.655 497.803 253.859C498.861 257.063 499.042 260.492 498.328 263.789Z" fill="#B55B52"/>
<path d="M493.036 262.848C487.37 271.923 493.036 276.434 493.036 276.434L499.589 269.952L493.036 262.848Z" fill="#263238"/>
<path d="M461.476 279.844C461.476 279.844 469.468 278.956 477.46 278.157C473.623 283.609 463.287 285.687 461.476 279.844Z" fill="white"/>
<path d="M475.347 266.205C475.169 267.43 474.388 268.371 473.571 268.318C472.754 268.265 472.292 267.217 472.469 265.992C472.647 264.766 473.428 263.825 474.245 263.878C475.062 263.931 475.524 264.979 475.347 266.205Z" fill="#263238"/>
<path d="M460.534 265.334C460.356 266.56 459.575 267.501 458.758 267.448C457.941 267.395 457.479 266.347 457.657 265.121C457.835 263.896 458.616 262.937 459.433 263.008C460.25 263.079 460.712 264.109 460.534 265.334Z" fill="#263238"/>
<path d="M459.771 263.097L457 262.031C457 262.031 458.208 264.446 459.771 263.097Z" fill="#263238"/>
<path d="M464.371 267.643C462.892 270.367 461.072 272.892 458.954 275.156C459.517 275.651 460.186 276.01 460.909 276.207C461.633 276.404 462.391 276.433 463.128 276.292L464.371 267.643Z" fill="#A02724"/>
<path d="M500.388 276.168C499.921 277.501 499.183 278.723 498.22 279.756C497.257 280.789 496.09 281.612 494.794 282.171C491.526 283.396 489.679 279.702 490.407 275.742C491.064 272.19 493.55 267.235 496.925 267.75C500.299 268.265 501.738 272.616 500.388 276.168Z" fill="#B55B52"/>
<path d="M473.197 240.275C469.059 250.611 499.339 266.915 500.885 279.649C508.433 266.968 501.151 230.596 473.197 240.275Z" fill="#263238"/>
<path d="M475.026 239.76C464.477 242.619 461.476 250.416 461.476 250.416C461.476 250.416 483.267 244.893 475.026 239.76Z" fill="#263238"/>
<path d="M479.52 259.616C479.425 259.618 479.33 259.598 479.244 259.558C479.158 259.518 479.082 259.459 479.022 259.385C478.445 258.724 477.713 258.216 476.892 257.906C476.071 257.597 475.186 257.494 474.316 257.609C474.227 257.627 474.135 257.626 474.046 257.606C473.958 257.587 473.874 257.549 473.801 257.496C473.727 257.442 473.666 257.374 473.62 257.296C473.574 257.218 473.545 257.131 473.534 257.04C473.508 256.848 473.556 256.653 473.668 256.495C473.78 256.336 473.948 256.227 474.138 256.188C475.238 256.031 476.359 256.151 477.4 256.535C478.442 256.92 479.372 257.557 480.106 258.39C480.227 258.54 480.285 258.731 480.269 258.923C480.252 259.115 480.162 259.293 480.017 259.42C479.875 259.535 479.702 259.603 479.52 259.616Z" fill="#263238"/>
<path d="M457.728 255.744C457.638 255.756 457.547 255.748 457.461 255.721C457.375 255.693 457.296 255.646 457.231 255.584C457.163 255.518 457.11 255.439 457.074 255.352C457.037 255.265 457.019 255.172 457.019 255.078C457.019 254.984 457.037 254.891 457.074 254.804C457.11 254.717 457.163 254.638 457.231 254.572C457.975 253.674 458.917 252.96 459.983 252.486C461.049 252.011 462.21 251.789 463.375 251.837C463.466 251.85 463.554 251.881 463.632 251.928C463.711 251.976 463.778 252.039 463.832 252.114C463.885 252.189 463.922 252.274 463.942 252.363C463.961 252.453 463.962 252.546 463.944 252.636C463.905 252.826 463.8 252.995 463.646 253.112C463.493 253.23 463.302 253.288 463.109 253.275C462.188 253.251 461.273 253.438 460.435 253.823C459.598 254.208 458.86 254.78 458.278 255.495C458.208 255.571 458.123 255.632 458.028 255.675C457.934 255.718 457.831 255.741 457.728 255.744Z" fill="#263238"/>
<path d="M474.582 263.967L471.812 262.901C471.812 262.901 472.966 265.317 474.582 263.967Z" fill="#263238"/>
<path d="M484.901 375.358H467.869L466.448 347.474H486.322L484.901 375.358Z" fill="#462AA5"/>
<path d="M479.609 368.307H467.443L466.804 354.614H479.609V368.307Z" fill="white"/>
<path d="M487.388 346.142H485.203L484.848 344.722H467.905L467.55 346.142H465.383L464.69 348.824H488.063L487.388 346.142Z" fill="white"/>
<path d="M479.52 353.424L484.368 353.016C485.269 352.939 486.176 353.078 487.013 353.42C487.849 353.763 488.593 354.3 489.181 354.987L494.722 361.523C495.818 362.806 496.589 364.335 496.969 365.98C497.349 367.624 497.328 369.336 496.907 370.971L496.392 373.013C488.382 374.256 478.827 369.692 478.827 369.692L475.968 368.698C475.373 368.51 474.821 368.207 474.344 367.804C473.868 367.402 473.476 366.908 473.192 366.353C472.908 365.798 472.737 365.192 472.689 364.57C472.641 363.948 472.717 363.322 472.913 362.73L474.813 357.012C475.169 356.024 475.803 355.16 476.637 354.524C477.472 353.887 478.473 353.505 479.52 353.424Z" fill="#B55B52"/>
<path d="M527.969 370.864C527.676 366.407 527.083 361.975 526.193 357.598C525.335 353.276 524.232 349.007 522.89 344.81C522.197 342.732 521.469 340.655 520.687 338.594C520.279 337.564 519.888 336.516 519.444 335.486C519 334.456 518.574 333.497 517.97 332.254C516.908 329.875 514.948 328.013 512.518 327.076C510.087 326.138 507.384 326.2 505 327.249C502.615 328.298 500.743 330.249 499.792 332.674C498.841 335.1 498.89 337.803 499.926 340.193L500.121 340.708L501.08 343.07L502.093 345.663C502.767 347.439 503.371 349.215 503.957 350.991C505.147 354.543 506.177 358.184 507.101 361.807C508.024 365.43 508.682 369.088 509.214 372.711C509.321 373.404 509.392 374.079 509.481 374.771L509.303 374.647C507.03 372.96 504.757 371.095 502.483 369.159L495.646 363.299L495.521 363.192C494.639 362.448 493.525 362.034 492.371 362.021C491.216 362.008 490.094 362.397 489.195 363.122C488.296 363.846 487.677 364.861 487.445 365.992C487.212 367.122 487.38 368.299 487.92 369.319C489.478 372.181 491.191 374.956 493.053 377.631C494.907 380.328 496.911 382.919 499.056 385.392C500.175 386.671 501.382 387.914 502.608 389.175C504.041 390.56 505.605 391.803 507.279 392.887C508.356 393.586 509.498 394.18 510.688 394.663C512.515 395.414 514.489 395.742 516.46 395.622C517.925 395.531 519.359 395.163 520.687 394.538C522.031 393.871 523.237 392.955 524.239 391.839C525.654 390.256 526.692 388.374 527.276 386.333C527.422 385.902 527.511 385.455 527.543 385.001V384.468C528.046 379.952 528.189 375.403 527.969 370.864Z" fill="#B55B52"/>
<path d="M500.832 314.974C511.488 316.607 515.733 319.84 524.417 341.205C520.475 349.179 502.004 356.798 502.004 356.798C502.004 356.798 489.821 329.128 500.832 314.974Z" fill="#263238"/>
<path d="M437.464 420.095C459.256 422.505 481.25 422.463 503.034 419.971C503.262 419.937 503.48 419.85 503.669 419.717C503.859 419.585 504.015 419.41 504.125 419.206C504.235 419.003 504.297 418.777 504.305 418.546C504.312 418.315 504.267 418.085 504.17 417.875C503.638 416.632 503.105 415.371 502.59 414.11C502.479 413.83 502.281 413.594 502.025 413.437C501.769 413.28 501.468 413.211 501.169 413.24C480.223 415.557 459.085 415.557 438.139 413.24C437.952 413.223 437.763 413.243 437.584 413.301C437.405 413.358 437.239 413.451 437.097 413.573C436.954 413.696 436.838 413.846 436.755 414.014C436.671 414.183 436.623 414.366 436.611 414.554C436.487 415.868 436.345 417.165 436.221 418.461C436.17 418.842 436.272 419.228 436.505 419.534C436.738 419.841 437.083 420.042 437.464 420.095Z" fill="#263238"/>
<path d="M599.612 732.991C612.329 732.014 620.924 723.276 620.001 714.041C619.504 708.926 635.807 708.482 635.807 708.482C633.232 724.288 636.464 726.544 637.583 730.629C638.702 734.713 638.382 739.224 635.008 739.313C630.977 739.42 629.094 738.638 624.068 738.834C618.207 739.065 611.867 739.296 601.442 739.313C597.215 739.331 593.965 733.488 599.612 732.991Z" fill="#462AA5"/>
<path d="M581.036 435.12C581.036 435.12 583.309 509.215 594.107 565.034C596.665 612.276 618.971 716.136 618.971 716.136C624.537 717.451 630.339 717.396 635.879 715.977C635.879 715.977 647.157 640.106 635.879 564.235C644.12 484.706 641.314 435.12 641.314 435.12H581.036Z" fill="#263238"/>
<path opacity="0.2" d="M641.722 472.043C641.331 494.279 639.946 525.767 635.95 564.288C636.784 569.972 637.459 575.69 637.974 581.356C610.34 535.624 603.84 463.341 641.722 472.043Z" fill="black"/>
<path d="M732.848 708.624C728.199 703.645 724.255 698.052 721.127 692.001C721.127 692.001 706.581 695.553 709.441 699.779C714.627 707.399 717.149 723.027 710.471 731.428C706.652 736.205 712.691 737.005 716.669 734.98C723.009 731.712 722.743 730.504 726.046 725.123C728.852 720.505 729.971 718.694 733.843 716.723C737.04 715 735.512 711.803 732.848 708.624Z" fill="#462AA5"/>
<path d="M603.005 435.12C603.005 435.12 627.514 538.128 642.965 582.066C659.198 628.242 706.901 699.513 708.677 702.586C715.053 700.81 720.736 698.661 724.519 694.949C724.519 694.949 706.35 621.014 685.838 570.86C678.023 466.236 651.685 435.12 651.685 435.12H603.005Z" fill="#263238"/>
<path d="M531.255 339.216L530.1 333.178C529.672 330.99 528.68 328.951 527.223 327.264L524.488 324.067C523.606 323.042 522.393 322.359 521.06 322.135C519.727 321.911 518.357 322.161 517.189 322.841L513.637 324.955C512.974 325.34 512.395 325.852 511.933 326.463C511.47 327.075 511.134 327.772 510.944 328.514C510.754 329.256 510.714 330.029 510.825 330.787C510.937 331.545 511.198 332.273 511.594 332.929L513.37 336.001C513.37 336.001 517.437 345.112 524.417 348.913L526.193 347.652C527.64 346.742 528.852 345.504 529.731 344.038C530.61 342.573 531.132 340.921 531.255 339.216Z" fill="#7F3E3B"/>
<path d="M595.582 348.291C594.318 347.595 592.929 347.155 591.495 346.996C590.061 346.837 588.61 346.962 587.224 347.365C585.838 347.767 584.546 348.439 583.42 349.342C582.294 350.244 581.358 351.36 580.663 352.625C580.663 352.518 580.575 352.749 580.504 352.838L580.219 353.264L579.562 354.188C579.118 354.809 578.657 355.449 578.159 356.07C577.165 357.313 576.135 358.557 575.051 359.622C572.962 361.881 570.634 363.906 568.107 365.661C565.74 367.3 563.15 368.591 560.417 369.497C559.067 369.92 557.691 370.252 556.297 370.491C556.042 370.51 555.787 370.51 555.533 370.491C554.908 370.061 554.314 369.586 553.757 369.071C552.512 367.912 551.326 366.691 550.205 365.412C547.825 362.748 545.534 359.729 543.225 356.692C538.643 350.582 534.15 344.082 529.657 337.724L529.568 337.6C528.799 336.54 527.677 335.789 526.403 335.482C525.13 335.175 523.789 335.331 522.621 335.924C521.453 336.516 520.535 337.506 520.031 338.715C519.526 339.924 519.47 341.273 519.871 342.519C522.492 350.316 525.686 357.908 529.426 365.234C531.346 369.028 533.469 372.715 535.784 376.281C537.009 378.057 538.324 379.94 539.869 381.822C541.647 384.027 543.721 385.975 546.031 387.612C548.006 388.975 550.255 389.89 552.62 390.294C553.043 390.365 553.47 390.407 553.899 390.418H554.556H555.888C556.528 390.418 557.167 390.418 557.806 390.418C560.374 390.326 562.929 390.011 565.443 389.477C570.418 388.397 575.182 386.507 579.545 383.882C583.744 381.394 587.59 378.353 590.982 374.843C592.636 373.154 594.195 371.375 595.653 369.515C596.381 368.573 597.074 367.597 597.766 366.584L598.761 365.004L599.258 364.169L599.844 363.121C601.223 360.585 601.549 357.608 600.752 354.833C599.954 352.058 598.097 349.708 595.582 348.291Z" fill="#7F3E3B"/>
<path d="M578.141 363.032C578.407 369.053 568.888 382.994 580.627 391.075C578.443 395.977 576.578 429.224 581.036 435.173C587.518 439.933 622.594 439.009 651.685 435.173C652.911 423.15 646.357 398.25 654.402 359.409C654.85 357.284 654.844 355.088 654.386 352.964C653.928 350.841 653.028 348.838 651.745 347.085C650.462 345.333 648.824 343.87 646.938 342.793C645.051 341.716 642.96 341.048 640.798 340.832C638.347 340.584 635.772 340.37 633.108 340.246C623.844 339.579 614.543 339.579 605.278 340.246C602.277 340.512 599.169 340.903 596.203 341.312C591.035 342.047 586.324 344.677 582.986 348.691C579.648 352.705 577.922 357.816 578.141 363.032Z" fill="#462AA5"/>
<path d="M634.031 308.917C631.811 317.797 629.645 332.467 633.179 340.246C633.179 340.246 618.047 342.289 601.211 355.768C598.351 342.235 604.372 340.335 604.372 340.335C611.476 338.701 612.506 330.158 612.506 323.498L634.031 308.917Z" fill="#7F3E3B"/>
<path opacity="0.2" d="M612.382 323.498L624.654 315.204C624.766 317.081 624.386 318.954 623.553 320.639C620.972 325.48 616.764 329.254 611.672 331.295C612.179 328.728 612.417 326.115 612.382 323.498Z" fill="black"/>
<path d="M639.804 292.489C636.252 307.053 635.133 313.286 626.502 319.556C613.519 328.968 596.754 321.545 595.919 306.236C595.156 292.454 600.999 270.964 616.166 267.608C631.333 264.251 643.285 277.926 639.804 292.489Z" fill="#7F3E3B"/>
<path d="M636.66 301.085C630.391 292.632 633.464 285.918 636.66 283.521C623.838 279.383 608.564 282.384 605.083 274.641C607.41 263.647 610.997 253.329 617.107 244.644C624.939 233.562 658.665 252.121 664.97 273.682C667.119 280.874 640.408 309.557 636.66 301.085Z" fill="#263238"/>
<path d="M616.272 294.052C616.059 295.26 615.242 296.112 614.496 295.97C613.75 295.828 613.253 294.745 613.466 293.555C613.679 292.365 614.478 291.495 615.242 291.637C616.005 291.779 616.538 292.862 616.272 294.052Z" fill="#263238"/>
<path d="M601.549 291.655C601.336 292.845 600.519 293.715 599.773 293.573C599.027 293.431 598.53 292.347 598.743 291.157C598.956 289.968 599.773 289.097 600.519 289.239C601.265 289.381 601.762 290.465 601.549 291.655Z" fill="#263238"/>
<path d="M600.838 289.364L598.121 288.014C598.121 288.014 599.187 290.536 600.838 289.364Z" fill="#263238"/>
<path d="M605.118 292.632C603.568 295.172 601.68 297.49 599.506 299.522C600.037 300.067 600.681 300.49 601.393 300.76C602.105 301.03 602.867 301.141 603.626 301.085L605.118 292.632Z" fill="#630F0F"/>
<path d="M640.869 306.058C640.32 307.313 639.511 308.438 638.494 309.356C637.478 310.275 636.277 310.967 634.973 311.386C631.634 312.31 630 308.651 630.941 304.957C631.794 301.636 634.493 297.143 637.868 297.853C641.242 298.563 642.397 302.79 640.869 306.058Z" fill="#7F3E3B"/>
<path d="M639.573 314.441C639.573 315.351 639.303 316.24 638.797 316.996C638.292 317.753 637.574 318.342 636.733 318.69C635.893 319.039 634.968 319.13 634.075 318.952C633.183 318.775 632.364 318.337 631.72 317.693C631.077 317.05 630.639 316.23 630.461 315.338C630.284 314.446 630.375 313.521 630.723 312.681C631.071 311.84 631.661 311.122 632.417 310.616C633.174 310.111 634.063 309.841 634.973 309.841C636.193 309.841 637.363 310.326 638.225 311.188C639.088 312.051 639.573 313.221 639.573 314.441Z" fill="#462AA5"/>
<path d="M620.339 289.488C620.245 289.46 620.158 289.413 620.085 289.348C620.011 289.284 619.952 289.204 619.912 289.115C619.529 288.303 618.962 287.592 618.256 287.037C617.55 286.482 616.725 286.099 615.845 285.918C615.66 285.896 615.491 285.801 615.374 285.655C615.258 285.509 615.204 285.323 615.224 285.137C615.25 284.948 615.348 284.777 615.496 284.658C615.645 284.54 615.833 284.482 616.023 284.497C617.141 284.701 618.194 285.171 619.094 285.866C619.993 286.561 620.712 287.462 621.191 288.493C621.233 288.576 621.259 288.666 621.265 288.759C621.272 288.851 621.26 288.944 621.23 289.032C621.201 289.119 621.153 289.2 621.092 289.27C621.03 289.339 620.955 289.395 620.871 289.435C620.708 289.521 620.516 289.54 620.339 289.488Z" fill="#263238"/>
<path d="M597.144 283.787C597.056 283.777 596.97 283.748 596.893 283.702C596.817 283.656 596.751 283.594 596.7 283.521C596.585 283.372 596.534 283.184 596.557 282.998C596.581 282.811 596.677 282.642 596.825 282.526C597.713 281.815 598.759 281.328 599.874 281.105C600.99 280.883 602.143 280.932 603.236 281.247C603.415 281.311 603.561 281.443 603.643 281.615C603.725 281.786 603.735 281.983 603.671 282.162C603.607 282.341 603.475 282.487 603.304 282.569C603.132 282.651 602.935 282.661 602.756 282.597C601.889 282.359 600.977 282.331 600.097 282.516C599.216 282.702 598.393 283.095 597.695 283.663C597.618 283.722 597.528 283.764 597.433 283.785C597.338 283.807 597.24 283.807 597.144 283.787Z" fill="#263238"/>
<path d="M615.615 291.761L612.897 290.429C612.897 290.429 613.963 292.933 615.615 291.761Z" fill="#263238"/>
<path opacity="0.2" d="M652.999 366.939C651.585 375.196 650.724 383.538 650.424 391.91C643.728 382.621 636.127 365.785 636.553 357.917L652.999 366.939Z" fill="black"/>
<path d="M611.583 392.301L605.544 384.184L594.444 396.51C594.444 396.51 601.833 403.17 609.576 403.845L610.695 401.962C611.585 400.532 612.129 398.914 612.283 397.237C612.437 395.559 612.197 393.869 611.583 392.301Z" fill="#7F3E3B"/>
<path d="M594.409 383.616L591.123 388.393C590.407 389.439 590.132 390.725 590.359 391.972C590.585 393.218 591.293 394.326 592.331 395.053L594.444 396.528L605.544 384.202L600.287 381.84C599.254 381.408 598.102 381.35 597.03 381.674C595.957 381.998 595.031 382.684 594.409 383.616Z" fill="#7F3E3B"/>
<path d="M661.489 380.739C660.709 375.772 659.635 370.856 658.274 366.016C657.599 363.618 656.871 361.256 656.09 358.912C655.699 357.722 655.308 356.55 654.882 355.36C654.456 354.17 654.012 353.087 653.443 351.701C652.417 348.976 650.349 346.771 647.697 345.57C645.044 344.37 642.023 344.272 639.298 345.299C636.573 346.326 634.367 348.393 633.167 351.046C631.966 353.699 631.868 356.72 632.895 359.445L633.037 359.835L634.032 362.73L635.062 365.803C635.737 367.863 636.376 369.941 636.962 372.036C638.17 376.192 639.182 380.366 640.035 384.468C640.84 388.422 641.363 392.428 641.598 396.456C641.675 398.388 641.616 400.323 641.42 402.246H641.136C637.949 401.72 634.808 400.948 631.741 399.937C628.437 398.925 625.081 397.7 621.706 396.385C618.332 395.071 614.904 393.739 611.583 392.46H611.37C610.161 392.003 608.83 391.985 607.609 392.41C606.389 392.835 605.357 393.676 604.694 394.786C604.031 395.896 603.78 397.203 603.984 398.479C604.188 399.756 604.835 400.919 605.811 401.767C608.786 404.297 611.892 406.668 615.117 408.871C618.37 411.116 621.737 413.19 625.205 415.087C628.933 417.153 632.86 418.837 636.927 420.113C639.445 420.893 642.054 421.347 644.688 421.463C646.514 421.541 648.341 421.338 650.105 420.859C652.617 420.186 654.92 418.891 656.8 417.094C657.601 416.297 658.246 415.357 658.7 414.323L658.86 413.986C661.227 408.448 662.476 402.496 662.537 396.474C662.662 391.208 662.312 385.942 661.489 380.739Z" fill="#7F3E3B"/>
<path d="M600.82 304.673C605.99 304.298 611.181 304.345 616.343 304.815C614.744 307.639 612.062 309.859 606.219 309.468C600.376 309.077 600.82 304.673 600.82 304.673Z" fill="#263238"/>
<path d="M609.168 307.337C606.954 307.083 604.712 307.44 602.686 308.367C603.748 309.046 604.977 309.421 606.238 309.45C608.444 309.707 610.679 309.357 612.702 308.438C611.645 307.759 610.424 307.379 609.168 307.337Z" fill="#630F0F"/>
<path d="M601.336 304.62C601.445 305.006 601.659 305.354 601.954 305.627C602.248 305.899 602.612 306.085 603.005 306.165C606.384 306.373 609.773 306.338 613.146 306.058C613.663 306.073 614.177 305.966 614.645 305.747C615.114 305.528 615.525 305.203 615.846 304.797C611.019 304.417 606.171 304.357 601.336 304.62Z" fill="white"/>
<path d="M599.773 341.436C599.613 341.434 599.46 341.37 599.346 341.258C599.295 341.2 599.253 341.134 599.222 341.063C599.205 340.993 599.205 340.92 599.222 340.85C599.221 340.693 599.278 340.541 599.382 340.424C599.44 340.372 599.506 340.33 599.577 340.299C599.72 340.246 599.878 340.246 600.021 340.299C600.093 340.33 600.158 340.372 600.217 340.424C600.274 340.477 600.317 340.544 600.341 340.619C600.359 340.695 600.359 340.774 600.341 340.85C600.357 340.92 600.357 340.993 600.341 341.063C600.317 341.138 600.274 341.205 600.217 341.258C600.159 341.318 600.09 341.364 600.014 341.395C599.937 341.425 599.855 341.439 599.773 341.436Z" fill="white"/>
<path d="M594.96 372.96C594.96 372.803 595.021 372.652 595.13 372.539C595.24 372.426 595.389 372.361 595.546 372.356C595.701 372.356 595.85 372.418 595.96 372.528C596.07 372.638 596.132 372.787 596.132 372.942C596.132 373.099 596.071 373.25 595.961 373.363C595.852 373.476 595.703 373.541 595.546 373.546C595.39 373.546 595.241 373.484 595.131 373.374C595.022 373.265 594.96 373.115 594.96 372.96ZM598.086 372.711C598.067 372.636 598.064 372.557 598.077 372.48C598.089 372.403 598.117 372.329 598.158 372.263C598.2 372.197 598.254 372.139 598.317 372.094C598.381 372.049 598.453 372.018 598.53 372.001C598.682 371.973 598.839 372.003 598.971 372.085C599.102 372.167 599.198 372.296 599.24 372.445C599.267 372.6 599.235 372.759 599.149 372.891C599.063 373.023 598.931 373.117 598.778 373.155H598.512C598.393 373.145 598.28 373.099 598.188 373.023C598.095 372.947 598.029 372.844 597.997 372.729L598.086 372.711ZM592.278 373.031C592.204 373.007 592.136 372.968 592.077 372.918C592.019 372.867 591.97 372.805 591.936 372.736C591.901 372.667 591.88 372.591 591.875 372.514C591.87 372.436 591.88 372.359 591.905 372.285C591.929 372.209 591.968 372.139 592.02 372.079C592.072 372.019 592.135 371.97 592.207 371.935C592.278 371.9 592.356 371.88 592.435 371.876C592.515 371.872 592.594 371.884 592.669 371.912C592.814 371.964 592.934 372.072 593 372.212C593.067 372.352 593.075 372.512 593.024 372.658C592.984 372.774 592.911 372.875 592.812 372.948C592.714 373.021 592.596 373.062 592.473 373.067L592.278 373.031ZM601.158 371.841C601.099 371.697 601.1 371.536 601.16 371.393C601.22 371.25 601.334 371.136 601.478 371.077C601.621 371.019 601.782 371.019 601.926 371.079C602.069 371.139 602.182 371.254 602.241 371.397C602.301 371.539 602.303 371.698 602.247 371.841C602.19 371.983 602.08 372.098 601.939 372.161H601.709C601.573 372.198 601.43 372.188 601.301 372.133C601.172 372.079 601.065 371.982 600.998 371.859L601.158 371.841ZM589.49 371.237C589.434 371.183 589.391 371.118 589.361 371.046C589.331 370.974 589.315 370.898 589.315 370.82C589.315 370.742 589.331 370.665 589.361 370.594C589.391 370.522 589.434 370.457 589.49 370.403C589.544 370.347 589.609 370.303 589.681 370.273C589.752 370.243 589.829 370.228 589.907 370.228C589.985 370.228 590.062 370.243 590.133 370.273C590.205 370.303 590.27 370.347 590.324 370.403C590.382 370.456 590.428 370.52 590.459 370.592C590.491 370.664 590.507 370.742 590.507 370.82C590.507 370.898 590.491 370.976 590.459 371.048C590.428 371.12 590.382 371.184 590.324 371.237C590.274 371.296 590.211 371.342 590.14 371.373C590.07 371.403 589.993 371.418 589.916 371.415C589.806 371.444 589.691 371.437 589.585 371.395C589.48 371.354 589.39 371.28 589.33 371.184L589.49 371.237ZM603.982 370.474C603.94 370.409 603.912 370.336 603.9 370.26C603.887 370.185 603.89 370.107 603.908 370.032C603.927 369.957 603.96 369.887 604.006 369.826C604.052 369.764 604.111 369.713 604.177 369.674C604.242 369.633 604.315 369.605 604.39 369.592C604.466 369.58 604.544 369.583 604.619 369.601C604.693 369.619 604.764 369.652 604.825 369.699C604.887 369.745 604.938 369.803 604.976 369.87C605.018 369.935 605.046 370.007 605.058 370.083C605.071 370.159 605.068 370.236 605.05 370.311C605.032 370.386 604.998 370.456 604.952 370.518C604.906 370.579 604.848 370.631 604.781 370.669C604.69 370.725 604.586 370.755 604.479 370.758C604.358 370.793 604.229 370.786 604.112 370.738C603.996 370.689 603.9 370.602 603.84 370.491L603.982 370.474ZM606.575 368.698C606.481 368.572 606.439 368.414 606.459 368.259C606.479 368.103 606.559 367.961 606.681 367.863C606.741 367.814 606.81 367.779 606.885 367.758C606.959 367.737 607.036 367.731 607.113 367.741C607.189 367.751 607.263 367.776 607.329 367.816C607.395 367.855 607.453 367.907 607.498 367.969C607.594 368.09 607.638 368.243 607.621 368.396C607.605 368.549 607.529 368.689 607.41 368.786C607.303 368.87 607.172 368.913 607.037 368.911C606.928 368.945 606.813 368.949 606.703 368.92C606.593 368.892 606.493 368.833 606.415 368.751L606.575 368.698ZM587.678 368.378C587.613 368.253 587.595 368.109 587.628 367.972C587.661 367.835 587.742 367.714 587.856 367.632C587.928 367.603 588.005 367.589 588.083 367.591C588.161 367.593 588.237 367.61 588.308 367.641C588.379 367.672 588.443 367.718 588.497 367.774C588.55 367.83 588.592 367.897 588.619 367.969C588.672 368.116 588.667 368.277 588.604 368.419C588.541 368.561 588.426 368.674 588.282 368.733H588.069C587.958 368.738 587.848 368.713 587.751 368.659C587.654 368.606 587.574 368.527 587.518 368.431L587.678 368.378ZM608.99 366.602C608.883 366.49 608.823 366.34 608.823 366.185C608.823 366.029 608.883 365.88 608.99 365.767C609.103 365.66 609.252 365.6 609.408 365.6C609.563 365.6 609.713 365.66 609.825 365.767C609.88 365.822 609.924 365.887 609.954 365.958C609.984 366.03 610 366.107 610 366.185C610 366.262 609.984 366.339 609.954 366.411C609.924 366.482 609.88 366.547 609.825 366.602C609.771 366.654 609.707 366.695 609.637 366.723C609.567 366.75 609.492 366.763 609.416 366.762C609.322 366.809 609.216 366.831 609.11 366.825C609.004 366.819 608.901 366.785 608.813 366.726L608.99 366.602ZM586.95 365.11C586.935 364.953 586.982 364.795 587.082 364.673C587.182 364.55 587.326 364.471 587.483 364.453C587.637 364.443 587.79 364.492 587.909 364.592C588.028 364.691 588.104 364.832 588.122 364.986C588.132 365.063 588.126 365.142 588.104 365.217C588.082 365.292 588.045 365.361 587.995 365.421C587.945 365.481 587.883 365.531 587.813 365.566C587.744 365.601 587.667 365.621 587.589 365.625C587.511 365.662 587.425 365.681 587.339 365.68C587.252 365.68 587.167 365.66 587.089 365.623C587.01 365.585 586.942 365.531 586.887 365.464C586.832 365.397 586.793 365.318 586.772 365.234L586.95 365.11ZM611.228 364.4C611.173 364.345 611.129 364.28 611.099 364.209C611.069 364.137 611.053 364.06 611.053 363.982C611.053 363.905 611.069 363.828 611.099 363.756C611.129 363.684 611.173 363.619 611.228 363.565C611.283 363.51 611.347 363.466 611.419 363.436C611.491 363.406 611.568 363.39 611.645 363.39C611.723 363.39 611.8 363.406 611.872 363.436C611.943 363.466 612.008 363.51 612.063 363.565C612.118 363.619 612.162 363.684 612.192 363.756C612.222 363.828 612.237 363.905 612.237 363.982C612.237 364.06 612.222 364.137 612.192 364.209C612.162 364.28 612.118 364.345 612.063 364.4C612.009 364.458 611.943 364.505 611.869 364.535C611.796 364.566 611.716 364.58 611.636 364.577C611.542 364.617 611.439 364.634 611.337 364.624C611.234 364.615 611.136 364.581 611.05 364.524L611.228 364.4ZM587.501 362.499C587.348 362.481 587.209 362.404 587.112 362.285C587.016 362.165 586.971 362.013 586.986 361.86C586.99 361.782 587.01 361.706 587.045 361.636C587.08 361.566 587.129 361.504 587.189 361.454C587.249 361.404 587.319 361.367 587.394 361.345C587.469 361.324 587.547 361.317 587.625 361.327C587.777 361.345 587.917 361.422 588.013 361.542C588.109 361.661 588.155 361.814 588.14 361.967C588.127 362.113 588.059 362.248 587.951 362.347C587.842 362.446 587.7 362.5 587.554 362.499H587.501ZM613.359 362.073C613.304 362.02 613.261 361.957 613.231 361.886C613.201 361.816 613.186 361.741 613.186 361.665C613.186 361.588 613.201 361.513 613.231 361.443C613.261 361.373 613.304 361.309 613.359 361.256C613.472 361.149 613.621 361.089 613.777 361.089C613.932 361.089 614.081 361.149 614.194 361.256C614.249 361.311 614.293 361.376 614.323 361.447C614.353 361.519 614.368 361.596 614.368 361.674C614.368 361.751 614.353 361.828 614.323 361.9C614.293 361.971 614.249 362.036 614.194 362.091C614.142 362.16 614.075 362.215 613.998 362.252C613.921 362.289 613.836 362.307 613.75 362.304C613.655 362.343 613.551 362.353 613.45 362.335C613.349 362.316 613.256 362.268 613.182 362.197L613.359 362.073ZM615.402 359.693C615.34 359.645 615.289 359.585 615.251 359.516C615.213 359.448 615.189 359.372 615.181 359.295C615.173 359.217 615.18 359.138 615.203 359.063C615.225 358.988 615.263 358.919 615.313 358.859C615.367 358.803 615.432 358.759 615.504 358.729C615.576 358.699 615.652 358.684 615.73 358.684C615.808 358.684 615.885 358.699 615.956 358.729C616.028 358.759 616.093 358.803 616.147 358.859C616.203 358.913 616.247 358.978 616.277 359.05C616.307 359.121 616.322 359.198 616.322 359.276C616.322 359.354 616.307 359.43 616.277 359.502C616.247 359.574 616.203 359.639 616.147 359.693C616.094 359.76 616.027 359.814 615.95 359.85C615.873 359.887 615.789 359.906 615.703 359.906C615.622 359.928 615.537 359.931 615.454 359.916C615.371 359.901 615.292 359.867 615.224 359.818L615.402 359.693ZM587.856 359.516C587.78 359.499 587.708 359.467 587.645 359.422C587.582 359.377 587.529 359.319 587.489 359.253C587.449 359.186 587.423 359.112 587.413 359.035C587.403 358.958 587.408 358.88 587.43 358.805C587.446 358.729 587.478 358.658 587.523 358.595C587.568 358.532 587.626 358.478 587.693 358.438C587.759 358.399 587.833 358.373 587.91 358.362C587.987 358.352 588.065 358.358 588.14 358.379C588.291 358.417 588.42 358.513 588.5 358.646C588.58 358.779 588.604 358.939 588.566 359.089C588.535 359.216 588.461 359.329 588.358 359.409C588.255 359.49 588.129 359.533 587.998 359.533H587.856V359.516ZM617.284 357.402C617.177 357.29 617.117 357.14 617.117 356.985C617.117 356.829 617.177 356.68 617.284 356.568C617.385 356.447 617.528 356.371 617.684 356.354C617.839 356.338 617.995 356.382 618.119 356.479C618.174 356.533 618.218 356.598 618.248 356.67C618.278 356.742 618.293 356.818 618.293 356.896C618.293 356.974 618.278 357.051 618.248 357.122C618.218 357.194 618.174 357.259 618.119 357.313C618.066 357.38 617.998 357.434 617.921 357.471C617.844 357.507 617.76 357.527 617.675 357.527C617.593 357.539 617.51 357.535 617.431 357.514C617.351 357.492 617.277 357.454 617.213 357.402H617.284ZM588.726 356.496C588.652 356.473 588.584 356.434 588.526 356.383C588.468 356.332 588.421 356.27 588.388 356.2C588.354 356.13 588.336 356.054 588.333 355.977C588.33 355.9 588.343 355.823 588.371 355.751C588.397 355.676 588.437 355.608 588.49 355.55C588.542 355.491 588.606 355.444 588.677 355.411C588.749 355.378 588.826 355.36 588.904 355.357C588.983 355.354 589.061 355.367 589.135 355.395C589.207 355.423 589.274 355.465 589.33 355.518C589.386 355.571 589.432 355.636 589.463 355.707C589.494 355.778 589.511 355.854 589.513 355.932C589.514 356.01 589.501 356.087 589.472 356.159C589.429 356.27 589.353 356.365 589.255 356.431C589.156 356.498 589.04 356.533 588.921 356.532C588.831 356.555 588.736 356.543 588.655 356.496H588.726ZM619.273 354.969C619.218 354.915 619.174 354.85 619.144 354.778C619.114 354.706 619.099 354.629 619.099 354.552C619.099 354.474 619.114 354.397 619.144 354.326C619.174 354.254 619.218 354.189 619.273 354.134C619.374 354.014 619.517 353.938 619.673 353.921C619.828 353.905 619.984 353.949 620.108 354.046C620.163 354.1 620.207 354.165 620.237 354.237C620.267 354.308 620.283 354.385 620.283 354.463C620.283 354.541 620.267 354.618 620.237 354.689C620.207 354.761 620.163 354.826 620.108 354.88C620.055 354.947 619.987 355.001 619.91 355.037C619.833 355.074 619.749 355.093 619.664 355.093C619.583 355.109 619.499 355.106 619.419 355.084C619.339 355.063 619.265 355.023 619.202 354.969H619.273ZM589.916 353.602C589.843 353.57 589.778 353.523 589.725 353.464C589.671 353.406 589.631 353.336 589.606 353.261C589.58 353.186 589.571 353.106 589.579 353.027C589.587 352.948 589.611 352.872 589.65 352.802C589.718 352.664 589.839 352.558 589.985 352.508C590.132 352.458 590.292 352.468 590.431 352.536C590.571 352.608 590.677 352.732 590.727 352.881C590.776 353.031 590.766 353.194 590.697 353.335C590.644 353.431 590.567 353.51 590.474 353.566C590.38 353.622 590.274 353.653 590.165 353.655C590.055 353.669 589.944 353.65 589.845 353.602H589.916ZM621.28 352.554C621.225 352.499 621.181 352.434 621.151 352.363C621.121 352.291 621.106 352.214 621.106 352.136C621.106 352.059 621.121 351.982 621.151 351.91C621.181 351.839 621.225 351.774 621.28 351.719C621.335 351.664 621.4 351.62 621.471 351.59C621.543 351.56 621.62 351.544 621.697 351.544C621.775 351.544 621.852 351.56 621.924 351.59C621.995 351.62 622.06 351.664 622.115 351.719C622.17 351.774 622.214 351.839 622.244 351.91C622.274 351.982 622.29 352.059 622.29 352.136C622.29 352.214 622.274 352.291 622.244 352.363C622.214 352.434 622.17 352.499 622.115 352.554C622.058 352.621 621.987 352.674 621.908 352.711C621.828 352.748 621.741 352.767 621.653 352.767C621.568 352.765 621.485 352.744 621.408 352.708C621.332 352.671 621.264 352.618 621.209 352.554H621.28ZM591.372 350.778C591.243 350.691 591.152 350.558 591.116 350.407C591.08 350.256 591.101 350.097 591.177 349.961C591.264 349.832 591.396 349.74 591.547 349.704C591.699 349.668 591.858 349.69 591.994 349.765C592.123 349.852 592.214 349.985 592.25 350.136C592.287 350.287 592.265 350.446 592.189 350.582C592.138 350.668 592.065 350.74 591.978 350.789C591.891 350.839 591.792 350.866 591.692 350.867C591.561 350.891 591.426 350.878 591.301 350.831L591.372 350.778ZM623.34 350.138C623.285 350.084 623.241 350.019 623.211 349.947C623.181 349.876 623.166 349.799 623.166 349.721C623.166 349.643 623.181 349.566 623.211 349.495C623.241 349.423 623.285 349.358 623.34 349.304C623.394 349.246 623.458 349.2 623.53 349.169C623.602 349.137 623.679 349.121 623.758 349.121C623.836 349.121 623.914 349.137 623.985 349.169C624.057 349.2 624.122 349.246 624.175 349.304C624.281 349.413 624.341 349.56 624.341 349.712C624.341 349.865 624.281 350.011 624.175 350.121C624.12 350.184 624.052 350.234 623.975 350.268C623.898 350.302 623.815 350.318 623.731 350.316C623.65 350.327 623.567 350.321 623.488 350.3C623.408 350.279 623.334 350.242 623.269 350.192L623.34 350.138ZM593.148 348.132C593.085 348.087 593.031 348.031 592.99 347.965C592.949 347.9 592.922 347.826 592.91 347.75C592.898 347.673 592.902 347.595 592.922 347.52C592.942 347.446 592.976 347.376 593.024 347.315C593.119 347.189 593.26 347.106 593.416 347.082C593.572 347.059 593.731 347.098 593.859 347.19C593.979 347.285 594.059 347.422 594.082 347.574C594.106 347.726 594.07 347.881 593.983 348.007C593.927 348.082 593.855 348.143 593.772 348.186C593.689 348.229 593.597 348.253 593.503 348.256C593.421 348.284 593.333 348.293 593.246 348.28C593.16 348.268 593.077 348.235 593.006 348.185L593.148 348.132ZM625.56 347.847C625.505 347.793 625.461 347.728 625.431 347.656C625.401 347.585 625.386 347.508 625.386 347.43C625.386 347.352 625.401 347.275 625.431 347.204C625.461 347.132 625.505 347.067 625.56 347.013C625.615 346.957 625.68 346.913 625.751 346.883C625.823 346.853 625.9 346.838 625.978 346.838C626.055 346.838 626.132 346.853 626.204 346.883C626.276 346.913 626.341 346.957 626.395 347.013C626.45 347.067 626.494 347.132 626.524 347.204C626.554 347.275 626.57 347.352 626.57 347.43C626.57 347.508 626.554 347.585 626.524 347.656C626.494 347.728 626.45 347.793 626.395 347.847C626.285 347.951 626.138 348.009 625.987 348.007C625.89 348.035 625.788 348.04 625.69 348.022C625.591 348.003 625.498 347.962 625.418 347.901L625.56 347.847ZM627.834 345.681C627.726 345.568 627.666 345.419 627.666 345.263C627.666 345.108 627.726 344.958 627.834 344.846C627.888 344.791 627.953 344.747 628.025 344.717C628.096 344.687 628.173 344.671 628.251 344.671C628.329 344.671 628.406 344.687 628.477 344.717C628.549 344.747 628.614 344.791 628.668 344.846C628.724 344.9 628.768 344.965 628.798 345.037C628.828 345.109 628.843 345.186 628.843 345.263C628.843 345.341 628.828 345.418 628.798 345.489C628.768 345.561 628.724 345.626 628.668 345.681C628.558 345.771 628.42 345.822 628.278 345.823C628.18 345.856 628.076 345.866 627.974 345.85C627.872 345.835 627.775 345.795 627.691 345.734L627.834 345.681ZM595.066 345.681C595.011 345.626 594.967 345.561 594.937 345.489C594.907 345.418 594.892 345.341 594.892 345.263C594.892 345.186 594.907 345.109 594.937 345.037C594.967 344.965 595.011 344.9 595.066 344.846C595.121 344.791 595.186 344.747 595.258 344.717C595.329 344.687 595.406 344.671 595.484 344.671C595.561 344.671 595.638 344.687 595.71 344.717C595.782 344.747 595.847 344.791 595.901 344.846C596.009 344.958 596.069 345.108 596.069 345.263C596.069 345.419 596.009 345.568 595.901 345.681C595.848 345.747 595.78 345.801 595.703 345.838C595.627 345.875 595.542 345.894 595.457 345.894C595.366 345.9 595.275 345.888 595.19 345.857C595.104 345.827 595.026 345.779 594.96 345.716L595.066 345.681ZM630.249 343.692C630.205 343.629 630.173 343.557 630.156 343.482C630.139 343.407 630.137 343.329 630.151 343.254C630.164 343.178 630.192 343.105 630.233 343.04C630.274 342.975 630.328 342.919 630.391 342.875C630.516 342.783 630.672 342.745 630.825 342.768C630.978 342.792 631.116 342.874 631.208 342.999C631.3 343.127 631.339 343.286 631.316 343.442C631.293 343.598 631.209 343.738 631.084 343.834C630.978 343.903 630.855 343.94 630.728 343.94C630.615 343.966 630.497 343.96 630.387 343.922C630.277 343.885 630.18 343.817 630.107 343.727L630.249 343.692ZM597.18 343.354C597.124 343.3 597.081 343.235 597.051 343.163C597.021 343.091 597.005 343.014 597.005 342.937C597.005 342.859 597.021 342.782 597.051 342.711C597.081 342.639 597.124 342.574 597.18 342.519C597.234 342.464 597.299 342.42 597.371 342.39C597.443 342.36 597.519 342.345 597.597 342.345C597.675 342.345 597.752 342.36 597.823 342.39C597.895 342.42 597.96 342.464 598.015 342.519C598.07 342.574 598.114 342.639 598.144 342.711C598.174 342.782 598.189 342.859 598.189 342.937C598.189 343.014 598.174 343.091 598.144 343.163C598.114 343.235 598.07 343.3 598.015 343.354C597.902 343.455 597.757 343.512 597.606 343.514C597.508 343.54 597.406 343.542 597.307 343.52C597.208 343.499 597.116 343.454 597.038 343.39L597.18 343.354ZM632.86 341.951C632.819 341.884 632.791 341.809 632.78 341.731C632.768 341.653 632.773 341.573 632.792 341.497C632.812 341.421 632.847 341.349 632.896 341.287C632.944 341.225 633.004 341.173 633.073 341.134C633.14 341.096 633.215 341.073 633.292 341.064C633.368 341.055 633.446 341.062 633.52 341.083C633.595 341.105 633.664 341.141 633.724 341.189C633.785 341.237 633.835 341.297 633.872 341.365C633.949 341.499 633.97 341.659 633.93 341.809C633.891 341.958 633.793 342.086 633.659 342.164C633.56 342.191 633.456 342.191 633.357 342.164C633.245 342.203 633.124 342.206 633.01 342.175C632.896 342.143 632.794 342.077 632.718 341.987L632.86 341.951Z" fill="white"/>
<path d="M636.092 340.868C636.022 340.886 635.949 340.886 635.879 340.868C635.808 340.837 635.742 340.795 635.684 340.743C635.626 340.686 635.579 340.62 635.542 340.548C635.532 340.471 635.532 340.394 635.542 340.317C635.547 340.163 635.61 340.017 635.719 339.909C635.769 339.848 635.838 339.804 635.914 339.784C636.022 339.742 636.139 339.731 636.252 339.753C636.366 339.775 636.47 339.829 636.554 339.909C636.658 340.019 636.715 340.165 636.714 340.317C636.732 340.393 636.732 340.472 636.714 340.548C636.683 340.619 636.641 340.685 636.589 340.743C636.52 340.797 636.439 340.836 636.354 340.857C636.268 340.879 636.179 340.882 636.092 340.868Z" fill="white"/>
<path d="M578.975 427.803C576.365 432.474 577.448 447.463 581.906 453.839C608.279 455.064 645.167 438.494 655.894 441.549C658.061 436.132 654.242 433.824 654.118 429.863C653.994 425.903 653.532 421.374 648.222 423.469C642.911 425.565 606.415 431.408 578.975 427.803Z" fill="#462AA5"/>
<path opacity="0.5" d="M578.975 427.803C576.365 432.474 577.448 447.463 581.906 453.839C608.279 455.064 645.167 438.494 655.894 441.549C658.061 436.132 654.242 433.824 654.118 429.863C653.994 425.903 653.532 421.374 648.222 423.469C642.911 425.565 606.415 431.408 578.975 427.803Z" fill="white"/>
<path d="M559.564 66.2981C600.27 77.8066 630.214 120.288 626.449 161.154C624.015 187.421 608.28 206.602 586.542 213.937C586.319 217.931 587.37 221.892 589.543 225.25C589.543 225.25 579.136 222 575.424 216.672C565.529 217.984 555.47 217.216 545.889 214.417C505.166 202.908 475.222 160.426 479.005 119.543C482.788 78.659 518.841 54.7718 559.564 66.2981Z" fill="#FDA336"/>
<path opacity="0.7" d="M559.564 66.2981C600.27 77.8066 630.214 120.288 626.449 161.154C624.015 187.421 608.28 206.602 586.542 213.937C586.319 217.931 587.37 221.892 589.543 225.25C589.543 225.25 579.136 222 575.424 216.672C565.529 217.984 555.47 217.216 545.889 214.417C505.166 202.908 475.222 160.426 479.005 119.543C482.788 78.659 518.841 54.7718 559.564 66.2981Z" fill="white"/>
<path d="M257.679 131.815C258.552 128.006 260.226 124.427 262.591 121.315C264.955 118.204 267.954 115.632 271.39 113.771C269.448 110.866 268.426 107.443 268.46 103.949C268.62 92.6894 279.879 83.7384 293.59 83.9338C299.423 83.9794 305.097 85.8417 309.823 89.2618C315.275 77.4514 331.295 73.0469 345.876 79.4227C358.059 84.7507 365.412 95.9395 364.577 106.471C367.099 106.044 369.66 105.895 372.214 106.027C388.198 106.915 400.63 118.299 399.973 131.46C399.529 139.469 394.307 146.271 386.688 150.179C392.016 160.266 392.212 171.668 386.297 180.371C380.383 189.073 370.313 192.927 359.32 192.163C350.795 200.493 336.836 204.453 322.361 201.434C319.56 200.849 316.819 200.005 314.174 198.912C309.148 205.43 298.421 205.501 298.421 205.501C301.806 202.474 304.206 198.503 305.312 194.099C300.341 190.693 296.26 186.143 293.413 180.832C287.001 181.028 277.429 179.465 271.905 174.03C267.465 169.661 265.103 162.593 266.577 157.869C259.296 150.694 255.744 141.21 257.679 131.815Z" fill="#FDA336"/>
<path opacity="0.2" d="M257.679 131.815C258.552 128.006 260.226 124.427 262.591 121.315C264.955 118.204 267.954 115.632 271.39 113.771C269.448 110.866 268.426 107.443 268.46 103.949C268.62 92.6894 279.879 83.7384 293.59 83.9338C299.423 83.9794 305.097 85.8417 309.823 89.2618C315.275 77.4514 331.295 73.0469 345.876 79.4227C358.059 84.7507 365.412 95.9395 364.577 106.471C367.099 106.044 369.66 105.895 372.214 106.027C388.198 106.915 400.63 118.299 399.973 131.46C399.529 139.469 394.307 146.271 386.688 150.179C392.016 160.266 392.212 171.668 386.297 180.371C380.383 189.073 370.313 192.927 359.32 192.163C350.795 200.493 336.836 204.453 322.361 201.434C319.56 200.849 316.819 200.005 314.174 198.912C309.148 205.43 298.421 205.501 298.421 205.501C301.806 202.474 304.206 198.503 305.312 194.099C300.341 190.693 296.26 186.143 293.413 180.832C287.001 181.028 277.429 179.465 271.905 174.03C267.465 169.661 265.103 162.593 266.577 157.869C259.296 150.694 255.744 141.21 257.679 131.815Z" fill="black"/>
<path d="M473.392 217.702L473.02 215.926C481.7 214.158 490.246 211.785 498.594 208.822L499.216 210.491C490.787 213.496 482.158 215.905 473.392 217.702Z" fill="#FDA336"/>
<path d="M452.968 221.272L452.72 219.496C456.094 219.016 459.469 218.501 462.701 217.933L463.003 219.709C459.753 220.224 456.432 220.792 452.968 221.272Z" fill="#FDA336"/>
<path d="M509.711 137.711C509.535 134.777 508.325 132.001 506.296 129.875C504.268 127.749 501.551 126.41 498.629 126.096C456.964 121.745 398.64 131.424 375.375 135.935C372.444 136.496 369.81 138.086 367.947 140.417C366.085 142.749 365.116 145.669 365.216 148.651C366.051 176.179 373.208 194.241 384.645 212.41C385.753 214.146 387.27 215.583 389.063 216.596C390.856 217.608 392.87 218.165 394.928 218.217C403.134 218.448 411.214 218.377 419.064 218.057C423.168 223.77 428.558 228.436 434.8 231.679C434.048 226.83 434.048 221.894 434.8 217.045C459.983 214.86 481.988 210.154 497.066 204.613C498.912 203.924 500.571 202.814 501.912 201.371C503.253 199.928 504.239 198.192 504.792 196.301C510.582 176.907 510.653 152.541 509.711 137.711Z" fill="#FDA336"/>
</svg>
